<svg id="visual" viewBox="0 0 900 600" width="900" height="600" xmlns="http://www.w3.org/2000/svg" xmlns:xlink="http://www.w3.org/1999/xlink" version="1.1"><g transform="translate(8.678811692971635 597.6112755512709)"><path d="M179.6 -324C199.5 -266.6 159.4 -160.6 205.1 -86.2C250.8 -11.7 382.3 31.1 388.7 63C395.1 94.9 276.5 115.9 215 185.4C153.4 255 148.8 373.1 110.4 391.4C72 409.7 -0.2 328.1 -90.4 303.6C-180.5 279 -288.6 311.4 -345.9 280.3C-403.1 249.1 -409.4 154.4 -405.3 68.8C-401.2 -16.8 -386.6 -93.3 -356.6 -164.4C-326.6 -235.5 -281.2 -301.2 -219.2 -339.3C-157.1 -377.5 -78.6 -388.3 0.6 -389.2C79.8 -390.2 159.7 -381.5 179.6 -324" fill="#560272"></path></g></svg>