<svg id="visual" viewBox="0 0 900 600" width="900" height="600" xmlns="http://www.w3.org/2000/svg" xmlns:xlink="http://www.w3.org/1999/xlink" version="1.1"><g transform="translate(906.8265051580372 622.5837630829706)"><path d="M169.1 -316C220.4 -263.1 264.4 -220.6 314 -169.6C363.5 -118.7 418.8 -59.3 416.7 -1.2C414.7 57 355.5 114 299.6 154.1C243.8 194.3 191.4 217.5 142 252.5C92.7 287.5 46.3 334.3 -20.6 369.9C-87.5 405.6 -175 430.1 -238.8 403.4C-302.6 376.8 -342.7 298.9 -378.8 223.1C-414.9 147.3 -446.9 73.7 -421 15C-395.1 -43.8 -311.2 -87.5 -272.6 -159C-234.1 -230.4 -240.8 -329.5 -202.9 -390.2C-165 -450.8 -82.5 -472.9 -11.8 -452.4C58.8 -431.9 117.7 -368.8 169.1 -316" fill="#BB004B"></path></g></svg>