<svg id="visual" viewBox="0 0 900 600" width="900" height="600" xmlns="http://www.w3.org/2000/svg" xmlns:xlink="http://www.w3.org/1999/xlink" version="1.1"><path d="M0 55L10.7 59C21.3 63 42.7 71 64.2 73C85.7 75 107.3 71 128.8 67C150.3 63 171.7 59 193 56C214.3 53 235.7 51 257 57C278.3 63 299.7 77 321.2 86C342.7 95 364.3 99 385.8 93C407.3 87 428.7 71 450 61C471.3 51 492.7 47 514.2 55C535.7 63 557.3 83 578.8 90C600.3 97 621.7 91 643 80C664.3 69 685.7 53 707 49C728.3 45 749.7 53 771.2 64C792.7 75 814.3 89 835.8 89C857.3 89 878.7 75 889.3 68L900 61L900 0L889.3 0C878.7 0 857.3 0 835.8 0C814.3 0 792.7 0 771.2 0C749.7 0 728.3 0 707 0C685.7 0 664.3 0 643 0C621.7 0 600.3 0 578.8 0C557.3 0 535.7 0 514.2 0C492.7 0 471.3 0 450 0C428.7 0 407.3 0 385.8 0C364.3 0 342.7 0 321.2 0C299.7 0 278.3 0 257 0C235.7 0 214.3 0 193 0C171.7 0 150.3 0 128.8 0C107.3 0 85.7 0 64.2 0C42.7 0 21.3 0 10.7 0L0 0Z" fill="#9800c9"></path><path d="M0 199L10.7 191C21.3 183 42.7 167 64.2 159C85.7 151 107.3 151 128.8 154C150.3 157 171.7 163 193 162C214.3 161 235.7 153 257 163C278.3 173 299.7 201 321.2 213C342.7 225 364.3 221 385.8 201C407.3 181 428.7 145 450 139C471.3 133 492.7 157 514.2 167C535.7 177 557.3 173 578.8 168C600.3 163 621.7 157 643 145C664.3 133 685.7 115 707 118C728.3 121 749.7 145 771.2 162C792.7 179 814.3 189 835.8 188C857.3 187 878.7 175 889.3 169L900 163L900 59L889.3 66C878.7 73 857.3 87 835.8 87C814.3 87 792.7 73 771.2 62C749.7 51 728.3 43 707 47C685.7 51 664.3 67 643 78C621.7 89 600.3 95 578.8 88C557.3 81 535.7 61 514.2 53C492.7 45 471.3 49 450 59C428.7 69 407.3 85 385.8 91C364.3 97 342.7 93 321.2 84C299.7 75 278.3 61 257 55C235.7 49 214.3 51 193 54C171.7 57 150.3 61 128.8 65C107.3 69 85.7 73 64.2 71C42.7 69 21.3 61 10.7 57L0 53Z" fill="#860daf"></path><path d="M0 397L10.7 395C21.3 393 42.7 389 64.2 374C85.7 359 107.3 333 128.8 331C150.3 329 171.7 351 193 361C214.3 371 235.7 369 257 376C278.3 383 299.7 399 321.2 394C342.7 389 364.3 363 385.8 352C407.3 341 428.7 345 450 338C471.3 331 492.7 313 514.2 325C535.7 337 557.3 379 578.8 394C600.3 409 621.7 397 643 379C664.3 361 685.7 337 707 316C728.3 295 749.7 277 771.2 282C792.7 287 814.3 315 835.8 314C857.3 313 878.7 283 889.3 268L900 253L900 161L889.3 167C878.7 173 857.3 185 835.8 186C814.3 187 792.7 177 771.2 160C749.7 143 728.3 119 707 116C685.7 113 664.3 131 643 143C621.7 155 600.3 161 578.8 166C557.3 171 535.7 175 514.2 165C492.7 155 471.3 131 450 137C428.7 143 407.3 179 385.8 199C364.3 219 342.7 223 321.2 211C299.7 199 278.3 171 257 161C235.7 151 214.3 159 193 160C171.7 161 150.3 155 128.8 152C107.3 149 85.7 149 64.2 157C42.7 165 21.3 181 10.7 189L0 197Z" fill="#751396"></path><path d="M0 445L10.7 447C21.3 449 42.7 453 64.2 439C85.7 425 107.3 393 128.8 395C150.3 397 171.7 433 193 456C214.3 479 235.7 489 257 498C278.3 507 299.7 515 321.2 504C342.7 493 364.3 463 385.8 455C407.3 447 428.7 461 450 456C471.3 451 492.7 427 514.2 426C535.7 425 557.3 447 578.8 461C600.3 475 621.7 481 643 475C664.3 469 685.7 451 707 425C728.3 399 749.7 365 771.2 357C792.7 349 814.3 367 835.8 366C857.3 365 878.7 345 889.3 335L900 325L900 251L889.3 266C878.7 281 857.3 311 835.8 312C814.3 313 792.7 285 771.2 280C749.7 275 728.3 293 707 314C685.7 335 664.3 359 643 377C621.7 395 600.3 407 578.8 392C557.3 377 535.7 335 514.2 323C492.7 311 471.3 329 450 336C428.7 343 407.3 339 385.8 350C364.3 361 342.7 387 321.2 392C299.7 397 278.3 381 257 374C235.7 367 214.3 369 193 359C171.7 349 150.3 327 128.8 329C107.3 331 85.7 357 64.2 372C42.7 387 21.3 391 10.7 393L0 395Z" fill="#64167e"></path><path d="M0 601L10.7 601C21.3 601 42.7 601 64.2 601C85.7 601 107.3 601 128.8 601C150.3 601 171.7 601 193 601C214.3 601 235.7 601 257 601C278.3 601 299.7 601 321.2 601C342.7 601 364.3 601 385.8 601C407.3 601 428.7 601 450 601C471.3 601 492.7 601 514.2 601C535.7 601 557.3 601 578.8 601C600.3 601 621.7 601 643 601C664.3 601 685.7 601 707 601C728.3 601 749.7 601 771.2 601C792.7 601 814.3 601 835.8 601C857.3 601 878.7 601 889.3 601L900 601L900 323L889.3 333C878.7 343 857.3 363 835.8 364C814.3 365 792.7 347 771.2 355C749.7 363 728.3 397 707 423C685.7 449 664.3 467 643 473C621.7 479 600.3 473 578.8 459C557.3 445 535.7 423 514.2 424C492.7 425 471.3 449 450 454C428.7 459 407.3 445 385.8 453C364.3 461 342.7 491 321.2 502C299.7 513 278.3 505 257 496C235.7 487 214.3 477 193 454C171.7 431 150.3 395 128.8 393C107.3 391 85.7 423 64.2 437C42.7 451 21.3 447 10.7 445L0 443Z" fill="#531767"></path></svg>