<svg id="visual" viewBox="0 0 960 540" width="960" height="540" xmlns="http://www.w3.org/2000/svg" xmlns:xlink="http://www.w3.org/1999/xlink" version="1.1"><rect x="0" y="0" width="960" height="540" fill="#ffffff"></rect><defs><linearGradient id="grad1_0" x1="43.8%" y1="0%" x2="100%" y2="100%"><stop offset="14.444444444444446%" stop-color="#9800c9" stop-opacity="1"></stop><stop offset="85.55555555555554%" stop-color="#9800c9" stop-opacity="1"></stop></linearGradient></defs><defs><linearGradient id="grad1_1" x1="43.8%" y1="0%" x2="100%" y2="100%"><stop offset="14.444444444444446%" stop-color="#9800c9" stop-opacity="1"></stop><stop offset="85.55555555555554%" stop-color="#d293e6" stop-opacity="1"></stop></linearGradient></defs><defs><linearGradient id="grad1_2" x1="43.8%" y1="0%" x2="100%" y2="100%"><stop offset="14.444444444444446%" stop-color="#ffffff" stop-opacity="1"></stop><stop offset="85.55555555555554%" stop-color="#d293e6" stop-opacity="1"></stop></linearGradient></defs><defs><linearGradient id="grad2_0" x1="0%" y1="0%" x2="56.3%" y2="100%"><stop offset="14.444444444444446%" stop-color="#9800c9" stop-opacity="1"></stop><stop offset="85.55555555555554%" stop-color="#9800c9" stop-opacity="1"></stop></linearGradient></defs><defs><linearGradient id="grad2_1" x1="0%" y1="0%" x2="56.3%" y2="100%"><stop offset="14.444444444444446%" stop-color="#d293e6" stop-opacity="1"></stop><stop offset="85.55555555555554%" stop-color="#9800c9" stop-opacity="1"></stop></linearGradient></defs><defs><linearGradient id="grad2_2" x1="0%" y1="0%" x2="56.3%" y2="100%"><stop offset="14.444444444444446%" stop-color="#d293e6" stop-opacity="1"></stop><stop offset="85.55555555555554%" stop-color="#ffffff" stop-opacity="1"></stop></linearGradient></defs><g transform="translate(960, 0)"><path d="M0 459C-28.9 450.4 -57.9 441.7 -85.8 431.5C-113.8 421.4 -140.8 409.6 -162.6 392.6C-184.5 375.7 -201.3 353.5 -230 344.2C-258.7 335 -299.4 338.6 -322.4 322.4C-345.5 306.3 -351 270.3 -361.7 241.7C-372.4 213 -388.4 191.8 -405.6 168C-422.7 144.2 -441.1 118 -450.2 89.5C-459.3 61.1 -459.1 30.6 -459 0L0 0Z" fill="#eac9f3"></path><path d="M0 306C-19.3 300.2 -38.6 294.5 -57.2 287.7C-75.9 280.9 -93.8 273.1 -108.4 261.8C-123 250.5 -134.2 235.7 -153.3 229.5C-172.5 223.3 -199.6 225.7 -215 215C-230.3 204.2 -234 180.2 -241.1 161.1C-248.3 142 -258.9 127.8 -270.4 112C-281.8 96.2 -294.1 78.6 -300.1 59.7C-306.2 40.8 -306.1 20.4 -306 0L0 0Z" fill="#b75bd8"></path><path d="M0 153C-9.6 150.1 -19.3 147.2 -28.6 143.8C-37.9 140.5 -46.9 136.5 -54.2 130.9C-61.5 125.2 -67.1 117.8 -76.7 114.7C-86.2 111.7 -99.8 112.9 -107.5 107.5C-115.2 102.1 -117 90.1 -120.6 80.6C-124.1 71 -129.5 63.9 -135.2 56C-140.9 48.1 -147 39.3 -150.1 29.8C-153.1 20.4 -153 10.2 -153 0L0 0Z" fill="#9800c9"></path></g><g transform="translate(0, 540)"><path d="M0 -459C30.8 -459.5 61.6 -460 89.5 -450.2C117.5 -440.3 142.8 -420.1 166.5 -401.9C190.2 -383.7 212.4 -367.5 235 -351.7C257.6 -335.9 280.6 -320.6 302.6 -302.6C324.7 -284.7 345.7 -264 358.4 -239.5C371 -214.9 375.2 -186.4 389 -161.1C402.7 -135.8 426.1 -113.7 439.4 -87.4C452.7 -61.1 455.8 -30.5 459 0L0 0Z" fill="#eac9f3"></path><path d="M0 -306C20.5 -306.3 41 -306.7 59.7 -300.1C78.4 -293.6 95.2 -280.1 111 -267.9C126.8 -255.8 141.6 -245 156.7 -234.5C171.7 -224 187.1 -213.8 201.8 -201.8C216.4 -189.8 230.5 -176 238.9 -159.6C247.3 -143.3 250.1 -124.3 259.3 -107.4C268.5 -90.5 284.1 -75.8 292.9 -58.3C301.8 -40.7 303.9 -20.4 306 0L0 0Z" fill="#b75bd8"></path><path d="M0 -153C10.3 -153.2 20.5 -153.3 29.8 -150.1C39.2 -146.8 47.6 -140 55.5 -134C63.4 -127.9 70.8 -122.5 78.3 -117.2C85.9 -112 93.5 -106.9 100.9 -100.9C108.2 -94.9 115.2 -88 119.5 -79.8C123.7 -71.6 125.1 -62.1 129.7 -53.7C134.2 -45.3 142 -37.9 146.5 -29.1C150.9 -20.4 151.9 -10.2 153 0L0 0Z" fill="#9800c9"></path></g></svg>