<svg id="visual" viewBox="0 0 900 600" width="900" height="600" xmlns="http://www.w3.org/2000/svg" xmlns:xlink="http://www.w3.org/1999/xlink" version="1.1"><rect x="0" y="0" width="900" height="600" fill="#ffffff"></rect><defs><linearGradient id="grad1_0" x1="33.3%" y1="0%" x2="100%" y2="100%"><stop offset="20%" stop-color="#9800c9" stop-opacity="1"></stop><stop offset="80%" stop-color="#9800c9" stop-opacity="1"></stop></linearGradient></defs><defs><linearGradient id="grad1_1" x1="33.3%" y1="0%" x2="100%" y2="100%"><stop offset="20%" stop-color="#9800c9" stop-opacity="1"></stop><stop offset="80%" stop-color="#d293e6" stop-opacity="1"></stop></linearGradient></defs><defs><linearGradient id="grad1_2" x1="33.3%" y1="0%" x2="100%" y2="100%"><stop offset="20%" stop-color="#ffffff" stop-opacity="1"></stop><stop offset="80%" stop-color="#d293e6" stop-opacity="1"></stop></linearGradient></defs><defs><linearGradient id="grad2_0" x1="0%" y1="0%" x2="66.7%" y2="100%"><stop offset="20%" stop-color="#9800c9" stop-opacity="1"></stop><stop offset="80%" stop-color="#9800c9" stop-opacity="1"></stop></linearGradient></defs><defs><linearGradient id="grad2_1" x1="0%" y1="0%" x2="66.7%" y2="100%"><stop offset="20%" stop-color="#d293e6" stop-opacity="1"></stop><stop offset="80%" stop-color="#9800c9" stop-opacity="1"></stop></linearGradient></defs><defs><linearGradient id="grad2_2" x1="0%" y1="0%" x2="66.7%" y2="100%"><stop offset="20%" stop-color="#d293e6" stop-opacity="1"></stop><stop offset="80%" stop-color="#ffffff" stop-opacity="1"></stop></linearGradient></defs><g transform="translate(900, 0)"><path d="M0 459.7C-27.1 438.9 -54.1 418.1 -80.8 406C-107.4 394 -133.6 390.6 -158.8 383.4C-184.1 376.2 -208.4 365.1 -237.8 355.9C-267.1 346.6 -301.5 339.3 -316.1 316.1C-330.6 292.9 -325.4 253.8 -344.2 230C-363 206.2 -405.8 197.7 -424.7 175.9C-443.6 154.2 -438.5 119.1 -440.4 87.6C-442.2 56.1 -451 28 -459.7 0L0 0Z" fill="#eac9f3"></path><path d="M0 306.5C-18 292.6 -36.1 278.7 -53.8 270.7C-71.6 262.6 -89 260.4 -105.9 255.6C-122.7 250.8 -139 243.4 -158.5 237.2C-178.1 231.1 -201 226.2 -210.7 210.7C-220.4 195.2 -217 169.2 -229.5 153.3C-242 137.5 -270.6 131.8 -283.1 117.3C-295.7 102.8 -292.4 79.4 -293.6 58.4C-294.8 37.4 -300.6 18.7 -306.5 0L0 0Z" fill="#b75bd8"></path><path d="M0 153.2C-9 146.3 -18 139.4 -26.9 135.3C-35.8 131.3 -44.5 130.2 -52.9 127.8C-61.4 125.4 -69.5 121.7 -79.3 118.6C-89 115.5 -100.5 113.1 -105.4 105.4C-110.2 97.6 -108.5 84.6 -114.7 76.7C-121 68.7 -135.3 65.9 -141.6 58.6C-147.9 51.4 -146.2 39.7 -146.8 29.2C-147.4 18.7 -150.3 9.3 -153.2 0L0 0Z" fill="#9800c9"></path></g><g transform="translate(0, 600)"><path d="M0 -459.7C28.2 -448.2 56.5 -436.6 85.4 -429.6C114.4 -422.6 144.1 -420 168 -405.6C191.9 -391.1 210.1 -364.7 230.6 -345.1C251 -325.4 273.9 -312.5 298.4 -298.4C322.9 -284.3 349.2 -269 372.5 -248.9C395.8 -228.8 416 -204.1 424.7 -175.9C433.4 -147.8 430.6 -116.3 434.5 -86.4C438.4 -56.5 449.1 -28.3 459.7 0L0 0Z" fill="#eac9f3"></path><path d="M0 -306.5C18.8 -298.8 37.7 -291.1 57 -286.4C76.3 -281.7 96.1 -280 112 -270.4C127.9 -260.7 140.1 -243.1 153.7 -230C167.4 -216.9 182.6 -208.3 198.9 -198.9C215.3 -189.5 232.8 -179.3 248.3 -165.9C263.8 -152.6 277.3 -136 283.1 -117.3C288.9 -98.5 287.1 -77.5 289.7 -57.6C292.3 -37.7 299.4 -18.8 306.5 0L0 0Z" fill="#b75bd8"></path><path d="M0 -153.2C9.4 -149.4 18.8 -145.5 28.5 -143.2C38.1 -140.9 48 -140 56 -135.2C64 -130.4 70 -121.6 76.9 -115C83.7 -108.5 91.3 -104.2 99.5 -99.5C107.6 -94.8 116.4 -89.7 124.2 -83C131.9 -76.3 138.7 -68 141.6 -58.6C144.5 -49.3 143.5 -38.8 144.8 -28.8C146.1 -18.8 149.7 -9.4 153.2 0L0 0Z" fill="#9800c9"></path></g></svg>