<svg id="visual" viewBox="0 0 900 600" width="900" height="600" xmlns="http://www.w3.org/2000/svg" xmlns:xlink="http://www.w3.org/1999/xlink" version="1.1"><path d="M0 408L21.5 414.5C43 421 86 434 128.8 440.2C171.7 446.3 214.3 445.7 257.2 435C300 424.3 343 403.7 385.8 395.2C428.7 386.7 471.3 390.3 514.2 400.2C557 410 600 426 642.8 426.8C685.7 427.7 728.3 413.3 771.2 402.7C814 392 857 385 878.5 381.5L900 378L900 601L878.5 601C857 601 814 601 771.2 601C728.3 601 685.7 601 642.8 601C600 601 557 601 514.2 601C471.3 601 428.7 601 385.8 601C343 601 300 601 257.2 601C214.3 601 171.7 601 128.8 601C86 601 43 601 21.5 601L0 601Z" fill="#fa7268"></path><path d="M0 427L21.5 423.8C43 420.7 86 414.3 128.8 418.7C171.7 423 214.3 438 257.2 436.3C300 434.7 343 416.3 385.8 406.5C428.7 396.7 471.3 395.3 514.2 408.8C557 422.3 600 450.7 642.8 462.2C685.7 473.7 728.3 468.3 771.2 458.3C814 448.3 857 433.7 878.5 426.3L900 419L900 601L878.5 601C857 601 814 601 771.2 601C728.3 601 685.7 601 642.8 601C600 601 557 601 514.2 601C471.3 601 428.7 601 385.8 601C343 601 300 601 257.2 601C214.3 601 171.7 601 128.8 601C86 601 43 601 21.5 601L0 601Z" fill="#ef5f67"></path><path d="M0 496L21.5 490.3C43 484.7 86 473.3 128.8 466C171.7 458.7 214.3 455.3 257.2 462.7C300 470 343 488 385.8 490.8C428.7 493.7 471.3 481.3 514.2 472.3C557 463.3 600 457.7 642.8 464.7C685.7 471.7 728.3 491.3 771.2 499.3C814 507.3 857 503.7 878.5 501.8L900 500L900 601L878.5 601C857 601 814 601 771.2 601C728.3 601 685.7 601 642.8 601C600 601 557 601 514.2 601C471.3 601 428.7 601 385.8 601C343 601 300 601 257.2 601C214.3 601 171.7 601 128.8 601C86 601 43 601 21.5 601L0 601Z" fill="#e34c67"></path><path d="M0 506L21.5 502.5C43 499 86 492 128.8 490.7C171.7 489.3 214.3 493.7 257.2 498.2C300 502.7 343 507.3 385.8 514.5C428.7 521.7 471.3 531.3 514.2 532.2C557 533 600 525 642.8 516.5C685.7 508 728.3 499 771.2 493.5C814 488 857 486 878.5 485L900 484L900 601L878.5 601C857 601 814 601 771.2 601C728.3 601 685.7 601 642.8 601C600 601 557 601 514.2 601C471.3 601 428.7 601 385.8 601C343 601 300 601 257.2 601C214.3 601 171.7 601 128.8 601C86 601 43 601 21.5 601L0 601Z" fill="#d53867"></path><path d="M0 547L21.5 544.7C43 542.3 86 537.7 128.8 534C171.7 530.3 214.3 527.7 257.2 527.2C300 526.7 343 528.3 385.8 528.8C428.7 529.3 471.3 528.7 514.2 535.2C557 541.7 600 555.3 642.8 558.3C685.7 561.3 728.3 553.7 771.2 551.3C814 549 857 552 878.5 553.5L900 555L900 601L878.5 601C857 601 814 601 771.2 601C728.3 601 685.7 601 642.8 601C600 601 557 601 514.2 601C471.3 601 428.7 601 385.8 601C343 601 300 601 257.2 601C214.3 601 171.7 601 128.8 601C86 601 43 601 21.5 601L0 601Z" fill="#c62368"></path></svg>