<svg id="visual" viewBox="0 0 900 600" width="900" height="600" xmlns="http://www.w3.org/2000/svg" xmlns:xlink="http://www.w3.org/1999/xlink" version="1.1"><path d="M0 484L21.5 488C43 492 86 500 128.8 503.7C171.7 507.3 214.3 506.7 257.2 500.2C300 493.7 343 481.3 385.8 476.3C428.7 471.3 471.3 473.7 514.2 479.7C557 485.7 600 495.3 642.8 495.8C685.7 496.3 728.3 487.7 771.2 481.2C814 474.7 857 470.3 878.5 468.2L900 466L900 601L878.5 601C857 601 814 601 771.2 601C728.3 601 685.7 601 642.8 601C600 601 557 601 514.2 601C471.3 601 428.7 601 385.8 601C343 601 300 601 257.2 601C214.3 601 171.7 601 128.8 601C86 601 43 601 21.5 601L0 601Z" fill="#fa7268"></path><path d="M0 496L21.5 494C43 492 86 488 128.8 490.5C171.7 493 214.3 502 257.2 501C300 500 343 489 385.8 483.2C428.7 477.3 471.3 476.7 514.2 484.8C557 493 600 510 642.8 516.8C685.7 523.7 728.3 520.3 771.2 514.3C814 508.3 857 499.7 878.5 495.3L900 491L900 601L878.5 601C857 601 814 601 771.2 601C728.3 601 685.7 601 642.8 601C600 601 557 601 514.2 601C471.3 601 428.7 601 385.8 601C343 601 300 601 257.2 601C214.3 601 171.7 601 128.8 601C86 601 43 601 21.5 601L0 601Z" fill="#ef5f67"></path><path d="M0 537L21.5 533.7C43 530.3 86 523.7 128.8 519.3C171.7 515 214.3 513 257.2 517.3C300 521.7 343 532.3 385.8 534C428.7 535.7 471.3 528.3 514.2 523C557 517.7 600 514.3 642.8 518.5C685.7 522.7 728.3 534.3 771.2 539C814 543.7 857 541.3 878.5 540.2L900 539L900 601L878.5 601C857 601 814 601 771.2 601C728.3 601 685.7 601 642.8 601C600 601 557 601 514.2 601C471.3 601 428.7 601 385.8 601C343 601 300 601 257.2 601C214.3 601 171.7 601 128.8 601C86 601 43 601 21.5 601L0 601Z" fill="#e34c67"></path><path d="M0 543L21.5 540.8C43 538.7 86 534.3 128.8 533.5C171.7 532.7 214.3 535.3 257.2 538.2C300 541 343 544 385.8 548.3C428.7 552.7 471.3 558.3 514.2 558.8C557 559.3 600 554.7 642.8 549.7C685.7 544.7 728.3 539.3 771.2 536C814 532.7 857 531.3 878.5 530.7L900 530L900 601L878.5 601C857 601 814 601 771.2 601C728.3 601 685.7 601 642.8 601C600 601 557 601 514.2 601C471.3 601 428.7 601 385.8 601C343 601 300 601 257.2 601C214.3 601 171.7 601 128.8 601C86 601 43 601 21.5 601L0 601Z" fill="#d53867"></path><path d="M0 568L21.5 566.7C43 565.3 86 562.7 128.8 560.5C171.7 558.3 214.3 556.7 257.2 556.2C300 555.7 343 556.3 385.8 556.5C428.7 556.7 471.3 556.3 514.2 560.3C557 564.3 600 572.7 642.8 574.5C685.7 576.3 728.3 571.7 771.2 570.2C814 568.7 857 570.3 878.5 571.2L900 572L900 601L878.5 601C857 601 814 601 771.2 601C728.3 601 685.7 601 642.8 601C600 601 557 601 514.2 601C471.3 601 428.7 601 385.8 601C343 601 300 601 257.2 601C214.3 601 171.7 601 128.8 601C86 601 43 601 21.5 601L0 601Z" fill="#c62368"></path></svg>