<svg id="visual" viewBox="0 0 960 540" width="960" height="540" xmlns="http://www.w3.org/2000/svg" xmlns:xlink="http://www.w3.org/1999/xlink" version="1.1"><path d="M0 328L22.8 332.3C45.7 336.7 91.3 345.3 137 348.8C182.7 352.3 228.3 350.7 274 352.8C319.7 355 365.3 361 411.2 365.2C457 369.3 503 371.7 548.8 372.8C594.7 374 640.3 374 686 374.3C731.7 374.7 777.3 375.3 823 375.5C868.7 375.7 914.3 375.3 937.2 375.2L960 375L960 541L937.2 541C914.3 541 868.7 541 823 541C777.3 541 731.7 541 686 541C640.3 541 594.7 541 548.8 541C503 541 457 541 411.2 541C365.3 541 319.7 541 274 541C228.3 541 182.7 541 137 541C91.3 541 45.7 541 22.8 541L0 541Z" fill="#ffffff"></path><path d="M0 378L22.8 386.8C45.7 395.7 91.3 413.3 137 419.8C182.7 426.3 228.3 421.7 274 416.2C319.7 410.7 365.3 404.3 411.2 396.2C457 388 503 378 548.8 373.3C594.7 368.7 640.3 369.3 686 374C731.7 378.7 777.3 387.3 823 393.7C868.7 400 914.3 404 937.2 406L960 408L960 541L937.2 541C914.3 541 868.7 541 823 541C777.3 541 731.7 541 686 541C640.3 541 594.7 541 548.8 541C503 541 457 541 411.2 541C365.3 541 319.7 541 274 541C228.3 541 182.7 541 137 541C91.3 541 45.7 541 22.8 541L0 541Z" fill="#eac9f3"></path><path d="M0 393L22.8 393.5C45.7 394 91.3 395 137 398.8C182.7 402.7 228.3 409.3 274 412.7C319.7 416 365.3 416 411.2 415.3C457 414.7 503 413.3 548.8 412.2C594.7 411 640.3 410 686 417.7C731.7 425.3 777.3 441.7 823 448.2C868.7 454.7 914.3 451.3 937.2 449.7L960 448L960 541L937.2 541C914.3 541 868.7 541 823 541C777.3 541 731.7 541 686 541C640.3 541 594.7 541 548.8 541C503 541 457 541 411.2 541C365.3 541 319.7 541 274 541C228.3 541 182.7 541 137 541C91.3 541 45.7 541 22.8 541L0 541Z" fill="#d293e6"></path><path d="M0 475L22.8 475C45.7 475 91.3 475 137 477C182.7 479 228.3 483 274 478.8C319.7 474.7 365.3 462.3 411.2 458.3C457 454.3 503 458.7 548.8 457.3C594.7 456 640.3 449 686 449.8C731.7 450.7 777.3 459.3 823 458.7C868.7 458 914.3 448 937.2 443L960 438L960 541L937.2 541C914.3 541 868.7 541 823 541C777.3 541 731.7 541 686 541C640.3 541 594.7 541 548.8 541C503 541 457 541 411.2 541C365.3 541 319.7 541 274 541C228.3 541 182.7 541 137 541C91.3 541 45.7 541 22.8 541L0 541Z" fill="#b75bd8"></path><path d="M0 489L22.8 487.3C45.7 485.7 91.3 482.3 137 482.7C182.7 483 228.3 487 274 490.8C319.7 494.7 365.3 498.3 411.2 499C457 499.7 503 497.3 548.8 495.7C594.7 494 640.3 493 686 493C731.7 493 777.3 494 823 494.5C868.7 495 914.3 495 937.2 495L960 495L960 541L937.2 541C914.3 541 868.7 541 823 541C777.3 541 731.7 541 686 541C640.3 541 594.7 541 548.8 541C503 541 457 541 411.2 541C365.3 541 319.7 541 274 541C228.3 541 182.7 541 137 541C91.3 541 45.7 541 22.8 541L0 541Z" fill="#9800c9"></path></svg>