<svg id="visual" viewBox="0 0 900 600" width="900" height="600" xmlns="http://www.w3.org/2000/svg" xmlns:xlink="http://www.w3.org/1999/xlink" version="1.1"><rect x="0" y="0" width="900" height="600" fill="#001220"></rect><path d="M0 444L21.5 442.7C43 441.3 86 438.7 128.8 434.8C171.7 431 214.3 426 257.2 414.3C300 402.7 343 384.3 385.8 376.7C428.7 369 471.3 372 514.2 381.5C557 391 600 407 642.8 407C685.7 407 728.3 391 771.2 392.2C814 393.3 857 411.7 878.5 420.8L900 430L900 601L878.5 601C857 601 814 601 771.2 601C728.3 601 685.7 601 642.8 601C600 601 557 601 514.2 601C471.3 601 428.7 601 385.8 601C343 601 300 601 257.2 601C214.3 601 171.7 601 128.8 601C86 601 43 601 21.5 601L0 601Z" fill="#0a1929"></path><path d="M0 473L21.5 461C43 449 86 425 128.8 415C171.7 405 214.3 409 257.2 418.7C300 428.3 343 443.7 385.8 443.5C428.7 443.3 471.3 427.7 514.2 423.2C557 418.7 600 425.3 642.8 422.3C685.7 419.3 728.3 406.7 771.2 405.2C814 403.7 857 413.3 878.5 418.2L900 423L900 601L878.5 601C857 601 814 601 771.2 601C728.3 601 685.7 601 642.8 601C600 601 557 601 514.2 601C471.3 601 428.7 601 385.8 601C343 601 300 601 257.2 601C214.3 601 171.7 601 128.8 601C86 601 43 601 21.5 601L0 601Z" fill="#23284d"></path><path d="M0 441L21.5 449.5C43 458 86 475 128.8 484.5C171.7 494 214.3 496 257.2 490.5C300 485 343 472 385.8 469.5C428.7 467 471.3 475 514.2 482.7C557 490.3 600 497.7 642.8 501.2C685.7 504.7 728.3 504.3 771.2 501.3C814 498.3 857 492.7 878.5 489.8L900 487L900 601L878.5 601C857 601 814 601 771.2 601C728.3 601 685.7 601 642.8 601C600 601 557 601 514.2 601C471.3 601 428.7 601 385.8 601C343 601 300 601 257.2 601C214.3 601 171.7 601 128.8 601C86 601 43 601 21.5 601L0 601Z" fill="#532f68"></path><path d="M0 508L21.5 509.5C43 511 86 514 128.8 516C171.7 518 214.3 519 257.2 520.2C300 521.3 343 522.7 385.8 516.7C428.7 510.7 471.3 497.3 514.2 490.5C557 483.7 600 483.3 642.8 490.3C685.7 497.3 728.3 511.7 771.2 521C814 530.3 857 534.7 878.5 536.8L900 539L900 601L878.5 601C857 601 814 601 771.2 601C728.3 601 685.7 601 642.8 601C600 601 557 601 514.2 601C471.3 601 428.7 601 385.8 601C343 601 300 601 257.2 601C214.3 601 171.7 601 128.8 601C86 601 43 601 21.5 601L0 601Z" fill="#8e2c72"></path><path d="M0 539L21.5 537C43 535 86 531 128.8 536.8C171.7 542.7 214.3 558.3 257.2 561.3C300 564.3 343 554.7 385.8 549.8C428.7 545 471.3 545 514.2 542.2C557 539.3 600 533.7 642.8 537.2C685.7 540.7 728.3 553.3 771.2 556.7C814 560 857 554 878.5 551L900 548L900 601L878.5 601C857 601 814 601 771.2 601C728.3 601 685.7 601 642.8 601C600 601 557 601 514.2 601C471.3 601 428.7 601 385.8 601C343 601 300 601 257.2 601C214.3 601 171.7 601 128.8 601C86 601 43 601 21.5 601L0 601Z" fill="#c62368"></path></svg>