<?xml version="1.0" standalone="no"?>
<svg xmlns:xlink="http://www.w3.org/1999/xlink" id="wave" style="transform:rotate(0deg); transition: 0.3s" viewBox="0 0 1440 240" version="1.1" xmlns="http://www.w3.org/2000/svg"><defs><linearGradient id="sw-gradient-0" x1="0" x2="0" y1="1" y2="0"><stop stop-color="rgba(255, 255, 255, 1)" offset="0%"/><stop stop-color="rgba(188.191, 114.543, 255, 1)" offset="60%"/></linearGradient></defs><path style="transform:translate(0, 0px); opacity:1" fill="url(#sw-gradient-0)" d="M0,120L80,132C160,144,320,168,480,148C640,128,800,64,960,36C1120,8,1280,16,1440,32C1600,48,1760,72,1920,92C2080,112,2240,128,2400,116C2560,104,2720,64,2880,44C3040,24,3200,24,3360,56C3520,88,3680,152,3840,160C4000,168,4160,120,4320,88C4480,56,4640,40,4800,52C4960,64,5120,104,5280,108C5440,112,5600,80,5760,72C5920,64,6080,80,6240,104C6400,128,6560,160,6720,152C6880,144,7040,96,7200,96C7360,96,7520,144,7680,152C7840,160,8000,128,8160,128C8320,128,8480,160,8640,168C8800,176,8960,160,9120,136C9280,112,9440,80,9600,64C9760,48,9920,48,10080,48C10240,48,10400,48,10560,72C10720,96,10880,144,11040,172C11200,200,11360,208,11440,212L11520,216L11520,240L11440,240C11360,240,11200,240,11040,240C10880,240,10720,240,10560,240C10400,240,10240,240,10080,240C9920,240,9760,240,9600,240C9440,240,9280,240,9120,240C8960,240,8800,240,8640,240C8480,240,8320,240,8160,240C8000,240,7840,240,7680,240C7520,240,7360,240,7200,240C7040,240,6880,240,6720,240C6560,240,6400,240,6240,240C6080,240,5920,240,5760,240C5600,240,5440,240,5280,240C5120,240,4960,240,4800,240C4640,240,4480,240,4320,240C4160,240,4000,240,3840,240C3680,240,3520,240,3360,240C3200,240,3040,240,2880,240C2720,240,2560,240,2400,240C2240,240,2080,240,1920,240C1760,240,1600,240,1440,240C1280,240,1120,240,960,240C800,240,640,240,480,240C320,240,160,240,80,240L0,240Z"/></svg>