<svg width="1440" height="319" xmlns="http://www.w3.org/2000/svg">
 <g>
  <title>Layer 1</title>
  <path stroke="null" fill="#f3f4f5" fill-opacity="0.8" d="m-61,230l34.3,-36.7125c34.3,-36.1625 102.7,-110.4125 171.7,-110c68.3,-0.4125 137,73.8375 205,124.7125c69,50.875 138,81.125 206,51.2875c68.7,-29.2875 137,-117.2875 206,-132c68.4,-14.1625 137,43.5875 206,66c68.1,21.5875 137,7.8375 205,-36.575c68.9,-43.5875 137,-117.8375 172,-154l34,-36.7125l0,352l-34.3,0c-34.3,0 -102.7,0 -171.7,0c-68.3,0 -137,0 -205,0c-69,0 -138,0 -206,0c-68.7,0 -137,0 -206,0c-68.4,0 -137,0 -206,0c-68.1,0 -137,0 -205,0c-68.9,0 -137,0 -172,0l-34,0l0,-88z" id="svg_1"/>
 </g>

</svg>